<?xml version="1.0" encoding="UTF-8"?>
<svg width="120" height="120" viewBox="0 0 120 120" fill="none" xmlns="http://www.w3.org/2000/svg">
    <style>
        @keyframes twinkle {
            0%, 100% { opacity: 0.4; }
            50% { opacity: 1; }
        }
        @keyframes flame {
            0%, 100% { transform: scale(1); }
            50% { transform: scale(1.1); }
        }
        @keyframes orbit {
            0% { transform: rotate(0deg); }
            100% { transform: rotate(360deg); }
        }
        .star { animation: twinkle 2s infinite; }
        .flame { animation: flame 0.5s infinite; }
        .orbit { animation: orbit 20s linear infinite; }
    </style>

    <!-- 背景圆形与光晕 -->
    <defs>
        <radialGradient id="bgGradient" cx="50%" cy="50%" r="50%">
            <stop offset="0%" style="stop-color:#2a2a2a"/>
            <stop offset="100%" style="stop-color:#1a1a1a"/>
        </radialGradient>
        <filter id="glow">
            <feGaussianBlur stdDeviation="2" result="coloredBlur"/>
            <feMerge>
                <feMergeNode in="coloredBlur"/>
                <feMergeNode in="SourceGraphic"/>
            </feMerge>
        </filter>
    </defs>
    
    <!-- 背景圆形 -->
    <circle cx="60" cy="60" r="56" fill="url(#bgGradient)"/>
    
    <!-- 轨道环 -->
    <g class="orbit">
        <circle cx="60" cy="60" r="52" stroke="#646CFF" stroke-width="0.5" fill="none" opacity="0.3"/>
        <circle cx="60" cy="60" r="48" stroke="#4FC08D" stroke-width="0.5" fill="none" opacity="0.2"/>
    </g>

    <!-- 火箭主体 -->
    <g filter="url(#glow)">
        <path d="M60 25C48 40 45 65 45 85L55 80C55 65 57 45 60 35C63 45 65 65 65 80L75 85C75 65 72 40 60 25Z" fill="#646CFF"/>
        <path d="M60 25C48 40 45 65 45 85L55 80C55 65 57 45 60 35C63 45 65 65 65 80L75 85C75 65 72 40 60 25Z" fill="#646CFF" filter="url(#glow)" opacity="0.5"/>
    </g>
    
    <!-- 火箭窗户 -->
    <circle cx="60" cy="55" r="5" fill="#4FC08D" filter="url(#glow)"/>
    
    <!-- 火焰效果 -->
    <g class="flame" filter="url(#glow)">
        <path d="M45 85C45 85 50 95 60 95C70 95 75 85 75 85C75 85 70 90 60 90C50 90 45 85 45 85Z" fill="#FF3E00"/>
        <path d="M48 87C48 87 52 93 60 93C68 93 72 87 72 87C72 87 68 90 60 90C52 90 48 87 48 87Z" fill="#FFB800"/>
    </g>
    
    <!-- 星星装饰 -->
    <g class="star">
        <circle cx="40" cy="40" r="2" fill="white" opacity="0.8"/>
        <circle cx="80" cy="40" r="2" fill="white" opacity="0.8"/>
        <circle cx="35" cy="60" r="1.5" fill="white" opacity="0.6"/>
        <circle cx="85" cy="60" r="1.5" fill="white" opacity="0.6"/>
        <circle cx="50" cy="30" r="1" fill="white" opacity="0.4"/>
        <circle cx="70" cy="30" r="1" fill="white" opacity="0.4"/>
    </g>

    <!-- 速度线条 -->
    <g opacity="0.3">
        <path d="M30 70L25 75" stroke="#646CFF" stroke-width="0.5"/>
        <path d="M90 70L95 75" stroke="#646CFF" stroke-width="0.5"/>
        <path d="M35 80L30 85" stroke="#646CFF" stroke-width="0.5"/>
        <path d="M85 80L90 85" stroke="#646CFF" stroke-width="0.5"/>
    </g>
</svg>
